Coordinates
version=1
nRows=24
nColumns=38
inDegrees=no

Units are S.I. units (second, meters, Newtons, ...)
If the header above contains a line with 'inDegrees', this indicates whether rotational values are in degrees (yes) or radians (no).

endheader
time	pelvis_tilt	pelvis_list	pelvis_rotation	pelvis_tx	pelvis_ty	pelvis_tz	hip_flexion_r	hip_adduction_r	hip_rotation_r	knee_angle_r	ankle_angle_r	subtalar_angle_r	mtp_angle_r	hip_flexion_l	hip_adduction_l	hip_rotation_l	knee_angle_l	ankle_angle_l	subtalar_angle_l	mtp_angle_l	lumbar_extension	lumbar_bending	lumbar_rotation	arm_flex_r	arm_add_r	arm_rot_r	elbow_flex_r	pro_sup_r	wrist_flex_r	wrist_dev_r	arm_flex_l	arm_add_l	arm_rot_l	elbow_flex_l	pro_sup_l	wrist_flex_l	wrist_dev_l
3.09	-1.3956	1.52889	0.476186	0.87398	0.485028	0.936122	0.508692	-0.149125	-0.120283	0.474225	0.169607	0	0	-0.22439	-0.130287	0.155595	0.234351	0.259924	0	0	-0.0144142	0.101099	0.196648	0.190952	-0.23623	-0.385431	1.25291	1.5708	0	0	-0.187659	-0.24762	0.478562	0.631851	0.778501	0	0
3.1	-1.42845	1.53035	0.512762	0.874145	0.47725	0.93557	0.494403	-0.149499	-0.129959	0.461223	0.16634	0	0	-0.22616	-0.134244	0.160253	0.241616	0.256937	0	0	-0.0107738	0.100824	0.195436	0.173302	-0.236667	-0.391822	1.27166	1.5708	0	0	-0.19479	-0.247088	0.468979	0.633126	0.780947	0	0
3.11	-1.49195	1.53154	0.580316	0.874215	0.469327	0.934954	0.481783	-0.15062	-0.140963	0.450686	0.163565	0	0	-0.225234	-0.138134	0.164222	0.251494	0.254102	0	0	-0.00604943	0.0998889	0.193552	0.155248	-0.235985	-0.398372	1.29101	1.5708	0	0	-0.202589	-0.246905	0.458391	0.634851	0.783845	0	0
3.12	-1.57805	1.53212	0.670866	0.8742	0.461291	0.934329	0.469728	-0.151163	-0.150972	0.441123	0.159134	0	0	-0.221985	-0.142241	0.167449	0.263501	0.251019	0	0	-0.000312927	0.0985839	0.190398	0.137718	-0.234252	-0.404286	1.30973	1.5708	0	0	-0.211412	-0.247785	0.448452	0.638191	0.786247	0	0
3.13	-1.65449	1.53225	0.751772	0.874172	0.453015	0.933789	0.456694	-0.150529	-0.161162	0.431632	0.153349	0	0	-0.218494	-0.146815	0.17125	0.276436	0.247027	0	0	0.00537938	0.0975675	0.186394	0.120348	-0.23167	-0.409614	1.32843	1.5708	0	0	-0.221082	-0.247988	0.435564	0.640739	0.791	0	0
3.14	-1.93947	1.52317	1.07731	0.879898	0.447873	0.93208	0.447981	-0.179335	-0.2228	0.427293	0.158124	0	0	-0.186616	-0.14717	0.22571	0.305905	0.247916	0	0	0.0346075	0.0996761	0.146377	0.0926246	-0.23645	-0.414739	1.35163	1.5708	0	0	-0.235903	-0.240575	0.426327	0.635787	0.794067	0	0
3.15	-1.98226	1.5229	1.12257	0.879617	0.43886	0.931702	0.43307	-0.175207	-0.231848	0.415131	0.152272	0	0	-0.184336	-0.152243	0.227736	0.31943	0.241757	0	0	0.0394009	0.0982769	0.143303	0.0750355	-0.231449	-0.419861	1.37066	1.5708	0	0	-0.247105	-0.241609	0.411734	0.639296	0.804595	0	0
3.16	-2.06237	1.52382	1.20344	0.879125	0.429294	0.931176	0.42435	-0.176333	-0.250381	0.434757	0.18198	0	0	-0.182866	-0.155002	0.228155	0.333273	0.233862	0	0	0.0441578	0.0936729	0.141626	0.0572405	-0.224394	-0.42465	1.38876	1.5708	0	0	-0.259217	-0.24597	0.403077	0.645614	0.80616	0	0
3.17	-1.97136	1.51946	1.10846	0.877785	0.419917	0.931409	0.413252	-0.156868	-0.246866	0.396233	0.121377	0	0	-0.177202	-0.167816	0.220632	0.352536	0.225587	0	0	0.048552	0.101187	0.144465	0.0406335	-0.219597	-0.43042	1.40539	1.5708	0	0	-0.26744	-0.242647	0.387022	0.641529	0.820305	0	0
3.18	-1.98299	1.52005	1.11608	0.876599	0.410415	0.931541	0.414462	-0.155596	-0.262337	0.43122	0.153897	0	0	-0.173031	-0.172421	0.216254	0.373801	0.214807	0	0	0.0504136	0.100543	0.145543	0.0263432	-0.213008	-0.432529	1.41956	1.5708	0	0	-0.277229	-0.243268	0.376485	0.64187	0.821411	0	0
3.19	-1.96169	1.51869	1.08839	0.875135	0.401188	0.932159	0.417126	-0.14838	-0.265528	0.445966	0.161062	0	0	-0.164632	-0.178502	0.208995	0.400485	0.201585	0	0	0.0523145	0.10325	0.147532	0.0138701	-0.207221	-0.432649	1.43091	1.5708	0	0	-0.285692	-0.240765	0.364779	0.638873	0.82159	0	0
3.2	-1.93125	1.51818	1.05078	0.873801	0.391868	0.933151	0.416787	-0.139743	-0.263508	0.457829	0.169437	0	0	-0.155393	-0.183948	0.200742	0.430362	0.184567	0	0	0.0535843	0.105902	0.148447	0.00280058	-0.201182	-0.429819	1.43909	1.5708	0	0	-0.294579	-0.23777	0.355646	0.635714	0.823006	0	0
3.21	-1.91362	1.51844	1.0254	0.872637	0.382312	0.934341	0.413027	-0.130257	-0.257632	0.464631	0.17693	0	0	-0.145087	-0.187698	0.19241	0.46233	0.163108	0	0	0.0554168	0.107032	0.148285	-0.0075328	-0.194439	-0.424535	1.44507	1.5708	0	0	-0.3051	-0.235182	0.347281	0.633258	0.824612	0	0
3.22	-1.89803	1.51911	1.00416	0.871521	0.373043	0.935611	0.405701	-0.12029	-0.252017	0.466438	0.184913	0	0	-0.13086	-0.190902	0.186265	0.49952	0.139337	0	0	0.0565065	0.107225	0.144416	-0.0158945	-0.187531	-0.41835	1.44994	1.5708	0	0	-0.315618	-0.232232	0.338381	0.631147	0.825517	0	0
3.23	-1.88613	1.51892	0.989345	0.870419	0.364225	0.93676	0.396554	-0.110353	-0.25008	0.46474	0.194965	0	0	-0.110294	-0.19392	0.183217	0.543929	0.114898	0	0	0.0575753	0.107384	0.13652	-0.0226308	-0.181054	-0.411273	1.45545	1.5708	0	0	-0.326282	-0.228512	0.327114	0.630809	0.82539	0	0
3.24	-1.84354	1.51802	0.944731	0.869284	0.355719	0.937832	0.384078	-0.0981706	-0.249819	0.45754	0.20409	0	0	-0.0858557	-0.197056	0.184375	0.595164	0.0921422	0	0	0.0576548	0.109305	0.127627	-0.0286291	-0.175129	-0.404701	1.462	1.5708	0	0	-0.335717	-0.226048	0.323359	0.63247	0.82084	0	0
3.25	-1.77228	1.51623	0.872245	0.868207	0.34759	0.938801	0.368871	-0.0838645	-0.249507	0.445189	0.210526	0	0	-0.0585684	-0.199623	0.19058	0.651848	0.0704753	0	0	0.0566991	0.113492	0.118068	-0.0345584	-0.170786	-0.398404	1.47038	1.5708	0	0	-0.34345	-0.22368	0.325163	0.634517	0.811705	0	0
3.26	-1.70375	1.53525	0.800473	0.866455	0.338848	0.942796	0.33321	-0.0818257	-0.24092	0.423287	0.212004	0	0	-0.0508586	-0.189756	0.182811	0.694924	0.0331006	0	0	0.0367445	0.0981052	0.111924	-0.0344541	-0.158066	-0.394606	1.46646	1.5708	0	0	-0.342853	-0.224673	0.327985	0.628093	0.800498	0	0
3.27	-1.25331	1.51425	0.403921	0.87257	0.339006	0.942202	0.303192	-0.0732646	-0.315891	0.408503	0.219677	0	0	0.00280515	-0.190382	0.287852	0.793316	0.0351483	0	0	0.0317628	0.14061	0.05042	-0.0416048	-0.183356	-0.389644	1.49945	1.5708	0	0	-0.338124	-0.201624	0.340064	0.622038	0.797807	0	0
3.28	-1.49376	1.50515	0.586344	0.865248	0.324541	0.941296	0.320159	-0.0331216	-0.240882	0.400865	0.220208	0	0	0.0265273	-0.19694	0.230853	0.83566	0.0199405	0	0	0.048652	0.135429	0.095796	-0.0545105	-0.167773	-0.384065	1.50175	1.5708	0	0	-0.355811	-0.213429	0.347123	0.635311	0.775931	0	0
3.29	-1.44752	1.50139	0.537371	0.863978	0.317634	0.942314	0.307101	-0.0190909	-0.239397	0.387397	0.222118	0	0	0.0655161	-0.189339	0.255053	0.902866	0.00321948	0	0	0.0455893	0.140449	0.0902036	-0.0598923	-0.166679	-0.38112	1.50821	1.5708	0	0	-0.354567	-0.210764	0.360259	0.632582	0.752577	0	0
3.3	-1.34667	1.4941	0.427574	0.863049	0.310094	0.943057	0.289555	0.0019439	-0.234632	0.371231	0.224533	0	0	0.0800166	-0.190948	0.25093	0.958804	0.0313798	0	0	0.0412806	0.153198	0.0890595	-0.0610862	-0.170502	-0.344002	1.49937	1.5708	0	0	-0.356311	-0.2055	0.371353	0.632337	0.728166	0	0
3.31	-1.2805	1.4906	0.35152	0.861248	0.302099	0.943402	0.275029	0.02499	-0.213639	0.356835	0.216977	0	0	0.0907349	-0.199433	0.249375	0.993487	0.068655	0	0	0.036507	0.158568	0.0954873	-0.0720056	-0.171782	-0.339639	1.50999	1.5708	0	0	-0.355348	-0.203517	0.385874	0.633397	0.705774	0	0
3.32	-1.27754	1.49129	0.335474	0.859459	0.294699	0.945164	0.259381	0.0361825	-0.198502	0.337797	0.216808	0	0	0.128101	-0.187502	0.249811	1.06834	0.0832336	0	0	0.0308176	0.159774	0.0939231	-0.0732116	-0.169962	-0.328509	1.51088	1.5708	0	0	-0.348033	-0.17227	0.151382	0.585261	0.23718	0	0
